<?xml version="1.0" standalone="no"?>
<svg xmlns="http://www.w3.org/2000/svg" xmlns:xlink="http://www.w3.org/1999/xlink" height="1080px" width="1920px">
  <defs>
    <pattern id="doodad" width="67" height="67" viewBox="0 0 40 40" patternUnits="userSpaceOnUse" patternTransform="rotate(45)">
      <rect width="100%" height="100%" fill="rgba(51, 51, 51,1)"/>
      <path d="M-20 15l20-20l20 20l20-20l20 20l20-20l20 20v-10l-20-20l-20 20l-20-20l-20 20l-20-20l-20 20zM-20-25l20-20l20 20l20-20l20 20l20-20l20 20v-10l-20-20l-20 20l-20-20l-20 20l-20-20l-20 20zM-20 55l20-20l20 20l20-20l20 20l20-20l20 20v-10l-20-20l-20 20l-20-20l-20 20l-20-20l-20 20z " fill="rgba(0, 0, 0,1)"/>
      <path d="M-20 30.5l20-20l20 20l20-20l20 20l20-20l20 20v-1l-20-20l-20 20l-20-20l-20 20l-20-20l-20 20zM-20-9.5l20-20l20 20l20-20l20 20l20-20l20 20v-1l-20-20l-20 20l-20-20l-20 20l-20-20l-20 20zM-20 70.5l20-20l20 20l20-20l20 20l20-20l20 20v-1l-20-20l-20 20l-20-20l-20 20l-20-20l-20 20z " fill="rgba(196, 198, 231,1)"/>
      <path d="M-20 35l20-20l20 20l20-20l20 20l20-20l20 20v-10l-20-20l-20 20l-20-20l-20 20l-20-20l-20 20zM-20-5l20-20l20 20l20-20l20 20l20-20l20 20v-10l-20-20l-20 20l-20-20l-20 20l-20-20l-20 20zM-20 75l20-20l20 20l20-20l20 20l20-20l20 20v-10l-20-20l-20 20l-20-20l-20 20l-20-20l-20 20z " fill="rgba(0, 0, 0,1)"/>
    </pattern>
  </defs>
  <rect fill="url(#doodad)" height="200%" width="200%"/>
</svg>
