<?xml version="1.0" standalone="no"?>
<svg xmlns="http://www.w3.org/2000/svg" xmlns:xlink="http://www.w3.org/1999/xlink" height="1080px" width="1920px">
  <defs>
    <pattern id="doodad" width="67" height="67" viewBox="0 0 40 40" patternUnits="userSpaceOnUse" patternTransform="rotate(45)">
      <rect width="100%" height="100%" fill="rgba(51, 51, 51,1)"/>
      <path d="M-20 14l20-20l20 20l20-20l20 20l20-20l20 20v-8l-20-20l-20 20l-20-20l-20 20l-20-20l-20 20zM-20-26l20-20l20 20l20-20l20 20l20-20l20 20v-8l-20-20l-20 20l-20-20l-20 20l-20-20l-20 20zM-20 54l20-20l20 20l20-20l20 20l20-20l20 20v-8l-20-20l-20 20l-20-20l-20 20l-20-20l-20 20z " fill="rgba(0, 0, 0,1)"/>
      <path d="M-20 36l20-20l20 20l20-20l20 20l20-20l20 20v-12l-20-20l-20 20l-20-20l-20 20l-20-20l-20 20zM-20-4l20-20l20 20l20-20l20 20l20-20l20 20v-12l-20-20l-20 20l-20-20l-20 20l-20-20l-20 20zM-20 76l20-20l20 20l20-20l20 20l20-20l20 20v-12l-20-20l-20 20l-20-20l-20 20l-20-20l-20 20z " fill="rgba(196, 198, 231,1)"/>
      <path d="M-20 34l20-20l20 20l20-20l20 20l20-20l20 20v-8l-20-20l-20 20l-20-20l-20 20l-20-20l-20 20zM-20-6l20-20l20 20l20-20l20 20l20-20l20 20v-8l-20-20l-20 20l-20-20l-20 20l-20-20l-20 20zM-20 74l20-20l20 20l20-20l20 20l20-20l20 20v-8l-20-20l-20 20l-20-20l-20 20l-20-20l-20 20z " fill="rgba(0, 0, 0,1)"/>
    </pattern>
  </defs>
  <rect fill="url(#doodad)" height="200%" width="200%"/>
</svg>
